<?xml version="1.0" encoding="utf-8"?>
<!-- Generator: Adobe Illustrator 26.0.0, SVG Export Plug-In . SVG Version: 6.00 Build 0)  -->
<svg version="1.1" id="Layer_1" xmlns="http://www.w3.org/2000/svg" xmlns:xlink="http://www.w3.org/1999/xlink" x="0px" y="0px" viewBox="0 0 2000 2000" style="enable-background:new 0 0 2000 2000;" xml:space="preserve" fill="#1E3A5F">
<g>
	<path d="M1484.95,1280.1c15.59-51.15,33.82-101.35,54.55-150.61c11.03-26.22,22.88-52.09,34.33-78.13c1.18-2.69,3.81-5.85,1.57-8.4
		c-3.1-3.52-6.31,0.13-9.02,1.63c-44.27,24.48-90.85,41.49-141.64,46.33c-67.23,6.4-129.81-7.74-187.8-41.75
		c-82.12-48.16-139.76-118.93-183.84-201.83c-18.02-33.89-33.57-68.88-44.87-105.66c-0.67-2.17-1.36-4.38-2.38-6.39
		c-1.3-2.57-2-6.34-5.9-5.86c-3.14,0.39-3.39,3.82-4.24,6.17c-4.01,11.05-7.6,22.26-11.71,33.27
		c-31.86,85.42-77.5,162.09-144.05,225.29c-52.34,49.71-112.47,84.94-184.64,96.76c-67.32,11.03-131.34-0.73-192.62-29.5
		c-9.95-4.67-19.58-10.01-29.36-15.04c-2.32-1.19-4.89-3.58-7.28-1.78c-3.22,2.43-0.64,5.59,0.51,8.19
		c9.66,21.86,19.66,43.57,29.1,65.52c22.66,52.66,42.35,106.43,60.15,160.91c0.33,1,0.3,2.11,0.81,6.1
		c-11.8-22.47-22.26-42.44-32.75-62.38c-65.11-123.77-138.96-242.19-218.62-357.06c-5.21-7.51-11.29-10.02-20.04-9.93
		c-37.98,0.41-64.6-29.94-62.94-69.59c1.23-29.4,28.67-54.87,58.92-56.92c33.06-2.25,61.48,17.84,68.1,48.18
		c4.76,21.83,0.27,41.47-14.8,58.11c-4.85,5.35-5.97,9.26-1.24,15.58c48.61,64.89,103.24,123.32,174.36,164.27
		c14.49,8.34,29.73,15.09,45.13,21.58c9.22,3.88,13.65,1.21,17.63-7.34c22.12-47.46,36.73-97.13,44.54-148.83
		c4.81-31.81,6.68-63.83,7.09-96c0.13-10.49-3.76-14.64-14.2-16c-34.31-4.47-57.01-36.65-51.71-72.13
		c5.19-34.78,37.17-58.6,71.38-53.46c25.18,3.79,43.26,17.34,51.42,41.09c8.3,24.16,4.81,47.57-13.92,66.44
		c-6.59,6.64-5.05,11.14-0.46,17.44c35.71,49.02,77.11,92.71,123.11,132.09c19.31,16.53,38.99,32.63,58.61,48.78
		c12.11,9.97,13.6,9.66,23.87-1.61c47.21-51.83,83.59-110.67,112.67-174.2c15.64-34.17,29.1-69.17,40.8-104.9
		c3.21-9.81,2.06-14.7-8.51-18.85c-29.66-11.64-44.12-41.56-37.76-74.38c4.66-24.05,31.05-51.48,63.19-51.07
		c31.02,0.4,56.34,19.44,62.72,47.6c7.15,31.59-6.82,62.67-35.83,75.88c-11.41,5.19-13.02,10.92-9.27,21.97
		c28.47,83.82,64.75,163.62,118.56,234.6c12.16,16.04,25,31.48,39.3,45.71c4.57,4.55,8.28,5.38,13.58,1.13
		c67.96-54.47,133.31-111.51,185-182.52c6.49-8.92,6.77-14.33-1.31-22.81c-18.7-19.65-20.37-53.14-5.55-76.26
		c15.34-23.93,43.6-34.12,72.92-26.28c25.12,6.72,43.72,30.67,44.37,57.12c0.77,31.59-14.73,55.16-42.3,64.33
		c-0.72,0.24-1.42,0.55-2.15,0.76c-21.64,6.24-21.86,6.24-21.58,28.68c0.98,78.71,16.21,154.43,48.25,226.54
		c8.5,19.13,8.65,19.11,27.44,11.28c61.87-25.79,112.21-67.26,157.32-115.81c18.87-20.3,36.13-41.94,53.16-63.79
		c6.05-7.77,6.92-12.87-0.39-21.11c-23.83-26.86-18.28-71.73,10.32-91.93c31.21-22.06,75.46-13.65,93.76,17.81
		c19.14,32.9,6.47,75.4-27.2,91.3c-8.41,3.97-17.38,5.85-26.53,5.15c-9.1-0.7-14.64,3.09-19.72,10.35
		c-58.94,84.35-114.22,171.02-165.51,260.23C1540.38,1175.42,1512.32,1227.49,1484.95,1280.1z M606.25,1055.96
		c62.92-0.62,116.38-21.58,165.06-56.45c8.35-5.98,5.21-9.57-1.14-14.35c-45.16-34.04-88.22-70.57-129.2-109.55
		c-3.69-3.51-7.04-10.65-12.26-8.5c-5.32,2.19-3.88,9.92-4.23,15.29c-3.27,50.79-15.01,99.63-34.48,146.51
		C576.44,1061.57,581.93,1052.65,606.25,1055.96z M1388.33,1052.75c6.82,0,13.65,0.1,20.47-0.02c8.79-0.15,11.26-3.71,7.75-12.37
		c-6.84-16.84-13.48-33.81-19.1-51.08c-12.1-37.26-19.83-75.43-21.31-114.72c-0.14-3.67,0.14-8.2-3.7-10.09
		c-3.16-1.55-5.53,1.61-7.66,3.69c-42.7,41.58-88.13,79.96-135.78,115.73c-6.27,4.71-6.36,8.15,0.22,12.86
		C1276.87,1030.85,1328.91,1052.29,1388.33,1052.75z"/>
	<path d="M1464.47,1386.21c-10.67,16.41-25.06,24.62-40.34,31.42c-35.92,15.98-73.95,24.65-112.27,32.57
		c-33.82,6.99-68.16,10.34-102.22,15.62c-20.15,3.12-40.77,3.2-61.17,4.81c-72.28,5.7-144.7,5.93-217.08,4.21
		c-41.6-0.99-83.18-4.17-124.67-8.22c-56.65-5.54-112.8-13.75-167.96-27.85c-28.32-7.24-56.22-15.92-81.34-31.55
		c-8.06-5.01-15.4-10.81-21.56-22.31c7.43,3.09,12.35,5.19,17.3,7.18c51.05,20.58,104.64,30.88,158.75,38.77
		c89.84,13.1,180.21,18.17,270.99,18.73c116.24,0.72,231.89-5.06,346.5-25.45c44.49-7.92,88.5-17.85,129.77-37.18
		C1460.09,1386.54,1461.26,1386.65,1464.47,1386.21z"/>
</g>
</svg>
